<svg xmlns="http://www.w3.org/2000/svg" width="256" height="256" viewBox="0 0 100 100">
    <rect width="100" height="100" rx="50" fill="#1c2238"></rect>
    <g fill="#c2c8de" stroke="#1c2238" stroke-width="1">
        <path
            transform="translate(4.5,0)scale(1.05)"
            d="M7.52 91.08L7.52 91.08L3.92 82.71Q7.16 81.40 10.13 78.97Q13.10 76.54 14.45 71.64L14.45 71.64Q15.49 68.13 15.69 63.22Q15.89 58.32 15.89 49.77L15.89 49.77L15.89 9.63L32.72 9.63L32.72 49.59Q32.72 56.11 32.79 61.87Q32.85 67.63 31.91 72.36L31.91 72.36Q30.97 77.22 28.15 80.80Q25.34 84.37 21.61 86.71Q17.87 89.05 14.11 90.13Q10.36 91.21 7.52 91.08Z"/>
        <path transform="translate(-12,16)scale(1.05)rotate(-10)"
            d="M44.42 43.20L44.42 43.20Q44.42 34.69 47.03 28.28Q49.64 21.87 54.32 17.55Q59 13.23 65.21 11.07Q71.42 8.91 78.62 8.91L78.62 8.91Q83.25 8.91 86.38 9.43Q89.51 9.94 91.78 10.57Q94.06 11.20 96.08 11.61L96.08 11.61L93.92 26.01Q92.97 25.38 91.24 24.46Q89.51 23.53 86.74 22.84Q83.97 22.14 79.97 22.14L79.97 22.14Q74.84 22.14 70.70 24.46Q66.56 26.77 64.13 31.25Q61.70 35.73 61.70 42.21L61.70 42.21Q61.70 48.82 63.84 53.77Q65.97 58.72 70.20 61.49Q74.44 64.26 80.69 64.26L80.69 64.26Q83.53 64.26 86.45 63.56Q89.38 62.86 91.72 61.87Q94.06 60.88 95.18 59.94L95.18 59.94L95.18 73.71Q93.47 74.43 91.15 75.24Q88.84 76.05 85.78 76.63Q82.72 77.22 78.80 77.22L78.80 77.22Q67.73 77.22 60.06 73.03Q52.38 68.85 48.40 61.20Q44.42 53.55 44.42 43.20Z"/>
    </g>
</svg>
