<svg width="16" height="16" viewBox="0 0 16 16" xmlns="http://www.w3.org/2000/svg">
    <rect x="0" y="0" width="16" height="16" fill="#EDB0CA"></rect>
    <g id="svgGroup"
       stroke-linecap="round"
       fill-rule="evenodd"
       stroke="#3D2851"
       stroke-width="0.25mm"
       fill="#3D2851"
       transform="scale(0.8), translate(2.75 4.25)"
    >
        <path
            d="M 5.73 8.445 L 5.73 0.87 A 0.833 0.833 0 0 1 5.765 0.624 A 0.671 0.671 0 0 1 5.925 0.353 A 0.652 0.652 0 0 1 6.339 0.155 A 0.899 0.899 0 0 1 6.435 0.15 A 0.8 0.8 0 0 1 6.687 0.188 A 0.666 0.666 0 0 1 6.953 0.353 A 0.683 0.683 0 0 1 7.152 0.793 A 0.918 0.918 0 0 1 7.155 0.87 L 7.155 8.445 A 3.934 3.934 0 0 1 7.008 9.538 A 3.386 3.386 0 0 1 6.69 10.29 Q 6.225 11.1 5.423 11.558 A 3.482 3.482 0 0 1 4.11 11.983 A 4.408 4.408 0 0 1 3.57 12.015 A 3.998 3.998 0 0 1 2.484 11.872 A 3.417 3.417 0 0 1 1.725 11.558 Q 0.915 11.1 0.458 10.29 A 3.548 3.548 0 0 1 0.022 8.887 A 4.375 4.375 0 0 1 0 8.445 A 0.8 0.8 0 0 1 0.038 8.193 A 0.666 0.666 0 0 1 0.203 7.928 A 0.683 0.683 0 0 1 0.643 7.728 A 0.918 0.918 0 0 1 0.72 7.725 A 0.797 0.797 0 0 1 0.956 7.758 A 0.635 0.635 0 0 1 1.23 7.928 A 0.689 0.689 0 0 1 1.419 8.34 A 0.932 0.932 0 0 1 1.425 8.445 A 2.602 2.602 0 0 0 1.505 9.104 A 2.162 2.162 0 0 0 1.71 9.615 Q 1.995 10.125 2.475 10.418 A 2.012 2.012 0 0 0 3.381 10.703 A 2.461 2.461 0 0 0 3.57 10.71 A 2.309 2.309 0 0 0 4.225 10.62 A 1.985 1.985 0 0 0 4.688 10.418 Q 5.175 10.125 5.453 9.615 A 2.276 2.276 0 0 0 5.708 8.804 A 2.866 2.866 0 0 0 5.73 8.445 Z"
            id="0"
            vector-effect="non-scaling-stroke"
            transform="scale(0.95)"
        />
        <path
            d="M 13.265 11.613 A 5.684 5.684 0 0 0 15.405 12.015 Q 16.425 12.015 17.355 11.7 A 5.011 5.011 0 0 0 17.614 11.604 A 5.321 5.321 0 0 0 19.08 10.71 A 0.745 0.745 0 0 0 19.152 10.639 A 0.583 0.583 0 0 0 19.253 10.478 A 0.672 0.672 0 0 0 19.28 10.396 A 0.752 0.752 0 0 0 19.305 10.2 A 0.851 0.851 0 0 0 19.286 10.013 A 0.571 0.571 0 0 0 19.133 9.728 Q 18.96 9.555 18.72 9.533 Q 18.562 9.518 18.403 9.591 A 0.912 0.912 0 0 0 18.24 9.69 A 6.141 6.141 0 0 1 18.058 9.821 A 5.388 5.388 0 0 1 16.898 10.433 A 3.973 3.973 0 0 1 16.655 10.515 A 4.27 4.27 0 0 1 15.405 10.695 Q 14.49 10.695 13.688 10.335 Q 12.885 9.975 12.278 9.33 Q 11.67 8.685 11.325 7.83 A 4.65 4.65 0 0 1 11.263 7.669 A 4.877 4.877 0 0 1 10.98 6 Q 10.98 5.04 11.325 4.193 Q 11.67 3.345 12.278 2.7 Q 12.885 2.055 13.688 1.68 Q 14.49 1.305 15.405 1.305 Q 15.975 1.305 16.426 1.395 A 3.057 3.057 0 0 1 16.988 1.56 A 3.905 3.905 0 0 1 17.449 1.786 A 4.621 4.621 0 0 1 18.18 2.31 A 0.87 0.87 0 0 0 18.302 2.392 Q 18.471 2.486 18.653 2.475 A 0.873 0.873 0 0 0 18.735 2.466 A 0.686 0.686 0 0 0 19.073 2.318 A 0.524 0.524 0 0 0 19.19 2.183 A 0.513 0.513 0 0 0 19.26 1.95 A 1.512 1.512 0 0 0 19.282 1.848 A 1.186 1.186 0 0 0 19.298 1.725 A 0.37 0.37 0 0 0 19.298 1.699 Q 19.298 1.652 19.287 1.605 A 0.513 0.513 0 0 0 19.253 1.508 A 0.479 0.479 0 0 0 19.175 1.391 A 0.646 0.646 0 0 0 19.08 1.305 A 6.841 6.841 0 0 0 18.344 0.775 A 5.128 5.128 0 0 0 17.393 0.308 Q 16.545 0 15.405 0 A 6.378 6.378 0 0 0 15.176 0.004 A 5.505 5.505 0 0 0 13.125 0.465 Q 12.075 0.93 11.28 1.755 Q 10.485 2.58 10.043 3.668 A 5.862 5.862 0 0 0 9.936 3.951 A 6.192 6.192 0 0 0 9.6 6 Q 9.6 7.26 10.05 8.355 Q 10.5 9.45 11.288 10.275 Q 12.075 11.1 13.133 11.558 A 5.489 5.489 0 0 0 13.265 11.613 Z"
            id="1"
            vector-effect="non-scaling-stroke"
            transform="scale(0.94) translate(-3.85 0.25)"
        />
    </g>
</svg>
